<svg aria-hidden="true" style="position:absolute;width:0;height:0;overflow:hidden" xmlns="http://www.w3.org/2000/svg">
  <defs>
    <symbol id="icon-close" viewBox="0 0 32 32">
      <path d="M28.614 1.13 16 13.744 3.386 1.13a1.594 1.594 0 0 0-2.207.049 1.596 1.596 0 0 0-.049 2.207L13.738 16 1.127 28.611a1.6 1.6 0 0 0-.029 2.284 1.579 1.579 0 0 0 1.147.468 1.616 1.616 0 0 0 1.137-.493L16 18.259l12.614 12.614a1.6 1.6 0 0 0 2.207-.049 1.596 1.596 0 0 0 .049-2.207L18.256 16.003 30.87 3.385a1.6 1.6 0 0 0 .029-2.284 1.579 1.579 0 0 0-1.147-.468 1.601 1.601 0 0 0-1.137.494v.003z"/>
    </symbol>
    <symbol id="icon-i" viewBox="0 0 32 32">
      <path fill="#fff" style="fill:var(--color1, #fff);stroke:var(--color2, #f3848c)" stroke="#f3848c" stroke-width="1.333" d="M31.333 16c0 8.468-6.865 15.333-15.333 15.333S.667 24.468.667 16 7.532.667 16 .667 31.333 7.532 31.333 16z"/>
      <path fill="#fff" style="fill:var(--color1, #fff)" d="M29.333 16c0 7.364-5.97 13.333-13.333 13.333S2.667 23.363 2.667 16C2.667 8.636 8.637 2.667 16 2.667S29.333 8.637 29.333 16z"/>
      <path fill="none" stroke="#f3848c" style="stroke:var(--color2, #f3848c)" stroke-linecap="round" stroke-width=".667" d="M29 16c0 7.18-5.82 13-13 13S3 23.18 3 16 8.82 3 16 3s13 5.82 13 13z"/>
      <path style="fill:var(--color3, #000)" d="M9.333 10.953a2.859 2.859 0 0 0 2.381 2.814v4.329a.48.48 0 0 0 .476.477h7.62a.476.476 0 0 0 .476-.477v-4.329a2.859 2.859 0 0 0 2.38-2.814 2.86 2.86 0 0 0-2.857-2.857h-1.078c-.603-.862-1.602-1.429-2.732-1.429s-2.129.566-2.732 1.429h-1.078a2.865 2.865 0 0 0-2.857 2.857zm3.333 6.191h6.668v.475h-6.668v-.475zm-.475-8.096h.616c-.093.309-.14.63-.14.952a.472.472 0 0 0 .476.476.48.48 0 0 0 .477-.476c0-1.313 1.068-2.381 2.381-2.381S18.382 8.687 18.382 10a.476.476 0 0 0 .953 0c0-.331-.05-.65-.141-.952h.616a1.906 1.906 0 0 1 1.348 3.25 1.91 1.91 0 0 1-1.344.56h-.003a.478.478 0 0 0-.478.478l.001.005v2.853h-6.668V13.337a.478.478 0 0 0-.477-.477h-.003a1.904 1.904 0 0 1 .004-3.809zm9.046 11.429H10.763a.472.472 0 0 0-.476.476.472.472 0 0 0 .476.476h10.474a.472.472 0 0 0 .476-.476.472.472 0 0 0-.476-.476zm0 1.429H10.763a.472.472 0 0 0-.476.476.472.472 0 0 0 .476.476h10.474a.472.472 0 0 0 .476-.476.472.472 0 0 0-.476-.476zm-2.381 1.441h-5.713a.472.472 0 0 0-.476.476.472.472 0 0 0 .476.476h5.713a.472.472 0 0 0 .476-.476.473.473 0 0 0-.476-.476z"/>
    </symbol>
    <symbol id="icon-menu" viewBox="0 0 60 32">
      <path d="M2 0h56a2 2 0 1 1 0 4H2a2 2 0 1 1 0-4zM2 14h56a2 2 0 1 1 0 4H2a2 2 0 1 1 0-4zM2 28h56a2 2 0 1 1 0 4H2a2 2 0 1 1 0-4z"/>
    </symbol>
    <symbol id="icon-facebook" viewBox="0 0 32 32">
      <path d="M22.512.007 18.895 0c-4.064 0-6.69 3.091-6.69 7.875v3.631H8.568c-.314 0-.569.292-.569.653v5.261c0 .361.255.652.569.652h3.637v13.275c0 .36.254.652.569.652h4.745c.314 0 .569-.292.569-.652V18.072h4.252c.314 0 .569-.292.569-.652l.002-5.261c0-.173-.06-.339-.167-.461s-.252-.191-.402-.191h-4.254V8.429c0-1.479.307-2.23 1.987-2.23l2.437-.001c.314 0 .568-.292.568-.652V.661c0-.36-.254-.652-.568-.652z"/>
    </symbol>
    <symbol id="icon-instagram" viewBox="0 0 32 32">
      <path d="M16.316 32h-.319c-2.508.006-4.826-.058-7.08-.195-2.066-.126-3.953-.84-5.455-2.065-1.45-1.182-2.44-2.781-2.942-4.75-.438-1.715-.461-3.398-.483-5.026a343.853 343.853 0 0 1-.036-3.96c.003-1.414.02-2.798.036-3.966.022-1.628.045-3.311.483-5.026.503-1.97 1.493-3.568 2.942-4.75C4.965 1.037 6.851.323 8.918.197 11.172.06 13.49-.004 16.004.002c2.509-.005 4.826.058 7.08.195 2.066.126 3.953.84 5.455 2.065 1.45 1.182 2.44 2.781 2.943 4.75.437 1.715.461 3.398.483 5.026.016 1.168.033 2.553.036 3.96v.006c-.003 1.408-.02 2.792-.036 3.96-.022 1.628-.045 3.311-.483 5.026-.503 1.97-1.493 3.568-2.943 4.75-1.502 1.225-3.389 1.939-5.455 2.065-2.159.131-4.376.195-6.768.195zm-.319-2.5c2.468.006 4.733-.056 6.934-.19 1.563-.095 2.917-.602 4.027-1.507 1.026-.837 1.732-1.991 2.1-3.431.364-1.428.385-2.96.406-4.442.016-1.16.032-2.535.036-3.929-.004-1.394-.02-2.769-.036-3.929-.02-1.482-.041-3.015-.406-4.443-.367-1.44-1.074-2.594-2.1-3.431-1.11-.905-2.465-1.412-4.027-1.507a108.807 108.807 0 0 0-6.928-.19c-2.467-.006-4.733.056-6.934.19-1.563.095-2.917.602-4.027 1.507-1.026.837-1.732 1.991-2.1 3.431-.364 1.428-.385 2.96-.406 4.443a363.726 363.726 0 0 0-.036 3.932c.003 1.389.02 2.765.036 3.926.02 1.482.041 3.015.406 4.442.367 1.44 1.074 2.594 2.1 3.431 1.11.905 2.465 1.412 4.027 1.507 2.201.134 4.467.197 6.928.191zm-.06-5.688c-4.308 0-7.813-3.505-7.813-7.812s3.505-7.813 7.813-7.813S23.75 11.692 23.75 16s-3.505 7.812-7.813 7.812zm0-13.125c-2.929 0-5.313 2.383-5.313 5.313s2.383 5.312 5.313 5.312c2.93 0 5.313-2.383 5.313-5.312s-2.383-5.313-5.313-5.313zm8.688-5a1.875 1.875 0 1 0 0 3.75 1.875 1.875 0 0 0 0-3.75z"/>
    </symbol>
    <symbol id="icon-location" viewBox="0 0 23 32">
      <path d="M11.733 0c6.47 0 11.733 5.131 11.733 11.438a11.15 11.15 0 0 1-2.341 6.857l-8.669 11.382c-.022.028-.055.038-.079.063a.887.887 0 0 1-1.367-.063c-2.496-3.247-7.072-9.312-8.832-11.599l-.001-.003-.011-.014a11.162 11.162 0 0 1-2.167-6.623C-.001 5.131 5.263 0 11.732 0zm0 17.609c3.483 0 6.33-2.775 6.33-6.171s-2.847-6.171-6.33-6.171-6.33 2.775-6.33 6.171 2.847 6.171 6.33 6.171z"/>
    </symbol>
    <symbol id="icon-logo" viewBox="0 0 72 32">
      <path d="M42.865 15.997c0 .261-.008.521 0 .783.09 2.653-.746 5.043-2.089 7.296-.45.756-.881 1.524-1.268 2.314-.32.649-.765 1.104-1.456 1.37-.386.148-.744.405-1.068.669-1.49 1.218-3.181 2.091-4.989 2.705-1.201.408-2.438.767-3.743.751-.389-.004-.779.114-1.169.115s-.779-.124-1.165-.108c-1.682.071-3.241-.441-4.789-.979-1.689-.586-3.18-1.513-4.583-2.617-1.98-1.558-3.39-3.52-4.428-5.765-.559-1.211-1.014-2.46-1.143-3.804-.021-.223-.096-.444-.162-.66-.47-1.507-.2-2.985.091-4.486.223-1.148.452-2.283.885-3.373 1.146-2.884 2.967-5.245 5.488-7.1C19.379 1.563 21.731.614 24.289.206c2.935-.468 5.8-.131 8.58.963 1.387.548 2.696 1.241 3.839 2.159 1.066.856 2.028 1.858 2.937 2.883.823.928 1.408 2.034 1.93 3.162.815 1.762 1.347 3.586 1.293 5.546-.012.362-.003.721-.004 1.08zm-1.127-3.57c-.081-.616-.132-1.329-.284-2.022-.433-1.992-1.599-3.548-3.152-4.818-.882-.722-1.843-1.349-2.791-1.988-.321-.216-.694-.415-1.068-.481-.963-.176-1.938-.34-2.914-.389-1.695-.085-3.217-.518-4.496-1.685-.942-.858-1.967-.941-2.946-.186-1.109.855-2.372 1.357-3.659 1.854-.943.364-1.851.823-2.758 1.276-.758.379-1.199.971-1.188 1.867.006.503-.227.923-.697 1.201-.392.234-.769.492-1.128.773-1.003.781-1.785 1.662-1.953 3.027-.133 1.08-.464 2.148-1.212 3.038-.25.306-.405.677-.446 1.069-.069.807-.041 1.625-.02 2.437.006.217.101.451.213.642.258.452.54.891.843 1.315.734 1.01 1.373 2.046 1.52 3.329.143 1.244.75 2.257 1.776 3.03 1.487 1.121 2.92 2.311 4.43 3.402.811.588 1.68 1.102 2.75 1.221s2.119.408 3.078.941c.201.107.422.174.649.197 1.354.144 2.606-.187 3.795-.814.373-.197.756-.375 1.142-.546.929-.412 1.959-.682 2.768-1.255.9-.639 1.863-.923 2.896-1.101.446-.077.811-.26 1.102-.588.347-.39.668-.802 1.029-1.179.374-.389.643-.802.709-1.356.1-.849.467-1.599.933-2.319.788-1.217 1.237-2.562 1.47-3.992.061-.375.096-.692-.092-1.023-.543-.953-.321-2.035-.493-3.049-.087-.548.113-1.148.197-1.832l-.002.001zm-6.532-9.518c-.229-.251-.302-.364-.406-.434-.187-.128-.392-.233-.591-.344-1.704-.95-3.569-1.412-5.476-1.743-.383-.067-.786-.037-1.176-.022-.102.004-.223.102-.288.19-.03.04.037.18.093.248.424.5.977.878 1.601 1.092 1.076.383 2.208.594 3.351.623.484.013.967.104 1.45.169.411.058.822.127 1.442.223zM20.733 30.284c-1.143-.925-2.146-1.752-3.166-2.556a113.403 113.403 0 0 0-2.57-1.951c-.097-.072-.25-.07-.462-.124 1.04 1.728 4.513 4.353 6.198 4.632zM13.029 8.699c.69-.521 1.328-1.07 2.028-1.524.982-.633 1.358-1.421 1.126-2.773-.697.564-1.194 1.244-1.731 1.861-.568.651-.989 1.426-1.462 2.155-.037.059.023.175.04.281zm23.256 19.722c-.643-.044-1.291.069-1.695.412-.766.652-1.677.98-2.604 1.306-.487.171-.945.422-1.404.661-.063.033-.075.209-.062.313.004.035.176.092.247.069.832-.281 1.692-.507 2.48-.882.967-.459 1.874-1.04 2.799-1.579.097-.054.148-.181.239-.299zm-24.576-9.039c-.185.54-.148.838-.032 1.156.322.882.518 1.814 1.1 2.585.215.286.26.925.657.787.35-.12-.06-.627-.084-.968-.092-1.304-.784-2.355-1.641-3.561zm6.24-16.24.086.129c.481-.176.966-.343 1.442-.532 1.034-.41 2.065-.829 3.092-1.254.207-.087.397-.225.574-.366.049-.04.041-.175.025-.258-.008-.037-.106-.078-.162-.08a1.017 1.017 0 0 0-.284.047c-1.397.393-2.714.974-3.975 1.68-.295.165-.534.422-.798.636zm24.533 14.005c.084-.097.151-.138.155-.183.136-1.421-.016-2.829-.213-4.233-.01-.071-.109-.172-.176-.18-.074-.01-.19.051-.235.117a.748.748 0 0 0-.134.352 13.346 13.346 0 0 0 .23 3.46c.045.23.237.432.373.668zm-31.11-3.92c.545-.206.627-.578.685-.915.142-.82.498-1.61.381-2.477-.57 1.035-1.075 2.083-1.066 3.392zm13.193 18.007c-1.222-.535-1.553-.591-2.641-.441.461.173.876.448 1.294.452.435.006.907.534 1.348-.011z"/>
      <path d="M27.085 20.593c-.836-.015-1.409-.361-1.835-1.03-.396-.624-1.055-.947-1.658-1.332-.761-.484-1.379-1.03-1.555-2.012-.122-.665.02-1.244.293-1.769.229-.439.638-.847 1.068-1.108.466-.283.852-.55 1.067-1.073.243-.602.857-.638 1.4-.746.512-.102 1.031-.167 1.536-.295.69-.174 1.315-.12 1.819.411.389.412.844.708 1.351.958.527.26.701.564.536 1.107-.112.369-.004.62.135.914.152.321.308.647.412.986.347 1.128-.052 2.077-1.122 2.58-.663.311-1.17.726-1.335 1.456a.683.683 0 0 1-.514.537c-.529.153-1.066.28-1.599.417zm3.508-4.729c.017-1.987-1.505-3.576-3.484-3.579-1.776 0-3.562 1.189-3.631 3.469-.056 1.824 1.48 3.524 3.481 3.53 2.437.012 3.587-1.663 3.634-3.42zm-7.134 1.9c0-.255.025-.385-.004-.503-.262-1.079-.433-2.148.162-3.188.043-.075-.056-.229-.089-.346-.117.037-.258.045-.346.117-.984.799-1.422 2.718.277 3.92zm3.652-5.977c.412.149.647.255.892.321.907.238 1.68.664 2.218 1.451.106.155.243.385.446.209.108-.094.143-.382.081-.526-.084-.191-.275-.43-.458-.468-.498-.103-.771-.46-1.095-.771-.546-.519-1.156-.682-2.085-.215zm-.056 7.822-.012-.075c-.261 0-.525-.022-.782.009-.132.016-.252.127-.378.195.114.1.213.257.345.29.703.175 1.411.213 2.104-.055.118-.046.25-.106.324-.201.066-.08.087-.223.074-.331-.005-.04-.169-.101-.25-.088-.476.074-.95.167-1.422.254l-.002.001zm3.593-2.038c.487-.089.704-.361.733-.779a7.158 7.158 0 0 0-.015-1.056c-.008-.093-.138-.175-.213-.263-.108.101-.328.238-.308.299.198.609-.215 1.155-.196 1.798v.001zM35.101 20.323c-.028.014-.141.107-.263.12-.111.013-.273-.024-.342-.101a16.942 16.942 0 0 1-.991-1.199c-.081-.109-.114-.401-.068-.426.152-.083.449-.17.516-.098.391.427.736.897 1.089 1.357.035.046.024.125.06.346zM18.53 23.668c.181.014.538.025.887.084.087.015.203.183.203.283s-.1.274-.187.295c-.677.166-1.352.207-1.951-.241a.292.292 0 0 1-.096-.246c.013-.067.118-.16.189-.165.26-.022.521-.01.955-.01zM39.757 9.562l.256.139c-.073.129-.117.336-.223.373-.488.177-.988.319-1.497.423-.146.028-.359-.114-.494-.231-.156-.136-.063-.431.133-.461.577-.088 1.158-.155 1.824-.242zM22.515 26.541c.271.125.498.16.608.294.303.372.581.764.83 1.174.122.195.011.406-.194.462-.112.031-.316-.06-.399-.16a12.741 12.741 0 0 1-.918-1.238c-.065-.102.036-.308.072-.532zM33.146 11.018c.017-.114 0-.244.054-.294.073-.066.23-.12.305-.085.103.049.169.182.24.286.196.291.391.584.578.882.084.134.196.276.203.42a.564.564 0 0 1-.175.398c-.056.051-.289.018-.346-.053-.375-.471-.824-.913-.857-1.554zM34.312 6.01c-.081.481-.114.836-.208 1.175a.974.974 0 0 1-.324.465c-.108.086-.295.073-.446.105-.012-.14-.056-.286-.031-.419.079-.41.185-.815.28-1.222.007-.032.005-.065.015-.096.075-.245.236-.432.494-.331.13.051.191.276.221.323zM27.318 9.141c.228.028.523.043.804.111.096.023.238.194.221.268-.029.132-.14.306-.258.345a.991.991 0 0 1-.571.003c-.324-.102-.627-.136-.95-.002-.213.088-.412-.004-.469-.214-.076-.281.137-.417.377-.457.256-.042.52-.035.845-.054zM32.377 22.97c-.092.398-.162.748-.262 1.089-.019.067-.162.157-.222.142-.108-.026-.26-.11-.282-.198a1.293 1.293 0 0 1-.016-.577c.076-.35.151-.682.008-1.039-.068-.171-.049-.444.214-.444.142 0 .345.173.409.316.103.229.11.499.151.71zM28.386 22.868c-.053.093-.078.204-.148.251-.427.291-.855.584-1.304.838-.115.065-.316.025-.463-.018-.215-.063-.259-.342-.081-.455.492-.312.986-.621 1.493-.908.081-.046.243.004.348.055.071.035.101.149.155.237zM22.945 4.155c.069.04.2.075.217.139.17.618.333 1.238.468 1.864.037.174-.195.27-.351.166-.49-.327-.796-1.536-.51-2.042.03-.05.102-.075.176-.128zM29.004 5.911c-.148-.098-.307-.147-.329-.231-.023-.091.053-.247.136-.321.36-.318.736-.618 1.128-.897.132-.092.406-.157.507-.085.239.166.114.401-.053.573-.224.231-.446.475-.704.662-.198.141-.452.201-.685.299zM19.68 9.177l-.359.335c-.102-.11-.254-.201-.297-.331a24.03 24.03 0 0 1-.453-1.555c-.019-.072.041-.219.101-.243.099-.04.263-.056.338 0 .149.109.319.254.367.418.128.425.195.87.301 1.377zM15.754 17.757c-.329.596-.579 1.207-1.191 1.533-.103.055-.331-.015-.441-.102-.187-.147 0-.27.091-.395.288-.392.553-.8.859-1.177.079-.097.279-.144.415-.131.092.008.168.164.268.272zM19.47 17.808c.172.098.296.128.319.192.038.106.058.272 0 .346-.094.117-.255.184-.394.263-.36.204-.715.42-1.089.594a.5.5 0 0 1-.422-.035c-.209-.147-.136-.383.032-.487.514-.318 1.053-.596 1.553-.873zM38.066 15.106c-.132.295-.318.74-.538 1.167-.034.066-.247.102-.338.063-.084-.037-.176-.205-.159-.295.088-.475.186-.952.335-1.411.045-.14.251-.267.408-.314.058-.017.211.201.284.334.041.075.007.191.007.457zM15.651 11.562c.582.517.513 1.218.577 1.866.012.12-.139.292-.26.379-.063.046-.32-.028-.326-.07a37.104 37.104 0 0 1-.219-1.971c-.004-.056.132-.125.228-.205zM29.253 27.56c.098.026.194.057.288.093.35.16.701.316 1.042.493.162.083.324.188.441.321.134.154-.019.451-.207.41-.634-.136-1.254-.325-1.729-.794-.07-.069-.069-.243-.046-.358.013-.065.136-.11.21-.165zM21.533 11.751c.034.104.149.265.108.366-.213.536-.46 1.059-.711 1.578-.031.064-.162.12-.24.11-.068-.008-.162-.103-.18-.175-.133-.579.286-1.615.754-1.876.048-.027.125-.004.268-.004zM39.672 20.539c-.073-.046-.225-.102-.304-.209-.032-.043.071-.239.159-.301a14.4 14.4 0 0 1 1.204-.789c.112-.065.345-.069.427.003.076.067.087.321.019.414-.348.48-.787.846-1.504.882zM37.262 24.67c-.301-.031-.432-.034-.557-.062-.053-.012-.132-.074-.133-.114a.42.42 0 0 1 .069-.259.495.495 0 0 1 .243-.15c.464-.138.928-.276 1.399-.388.102-.024.318.043.331.1.031.137-.006.303-.06.441-.029.073-.144.134-.232.16-.403.11-.808.207-1.06.272zM23.29 21.355c-.033.14-.087.45-.191.742-.026.073-.229.142-.322.116s-.203-.178-.2-.274c.01-.541.037-1.083.092-1.622.012-.118.162-.221.249-.331.104.109.272.205.299.329.059.279.046.573.073 1.039zM45.035 4.422c0-1.146.28-2.016.84-2.608.567-.598 1.293-.898 2.178-.898s1.589.258 2.111.775c.529.516.793 1.342.793 2.475s-.28 1.99-.841 2.57c-.56.579-1.309.869-2.245.869-.809 0-1.471-.23-1.987-.69-.267-.239-.478-.57-.63-.992-.146-.428-.22-.929-.22-1.502zm2.99-3.41c-.643 0-1.172.283-1.586.85-.407.567-.611 1.398-.611 2.494s.194 1.896.583 2.4c.388.504.904.756 1.547.756.65 0 1.178-.283 1.586-.85.414-.573.621-1.401.621-2.485 0-1.09-.197-1.89-.592-2.4a1.851 1.851 0 0 0-1.548-.765zM52.61 7.569h-.793V.955h.793v3.042h3.105V.955h.793v6.614h-.793V4.092H52.61v3.477zM60.584 7.569h-.124l.831-6.614h.315l2.006 6.113L65.609.955h.315l.831 6.614h-.793l-.659-5.291-1.729 5.291h-.602l-1.748-5.225-.64 5.225zM72.047.955c.121.12.181.274.181.463 0 .157-.035.318-.105.482l-1.71 3.43v2.239h-.793V5.538L67.709.956h.812l1.824 4.261 1.662-3.316c.07-.157.105-.321.105-.491s-.048-.302-.143-.397l.076-.057zM1.347 9.306c.494-.022.976-.033 1.448-.033.483 0 .988.05 1.515.15.539.1 1.066.289 1.582.566a4.11 4.11 0 0 1 1.33 1.049c.37.422.668.982.892 1.682s.337 1.548.337 2.547c0 .999-.168 1.898-.505 2.697-.325.788-.774 1.393-1.347 1.815-1.111.821-2.452 1.232-4.024 1.232-.55 0-1.128-.022-1.734-.067h-.842V9.306h1.347zm.05 11.505c.236.022.533.033.892.033s.628-.006.808-.017c.18-.011.426-.055.741-.133.314-.089.606-.205.875-.35s.55-.355.842-.633c.303-.289.561-.627.774-1.016.483-.91.724-2.098.724-3.563 0-1.043-.129-1.942-.387-2.697-.258-.766-.556-1.332-.892-1.698a3.477 3.477 0 0 0-1.195-.866c-.471-.222-.847-.35-1.128-.383s-.606-.05-.976-.05-.73.017-1.077.05v11.321zM45.308 20.944h-.219V9.29h.572l7.003 10.772V9.29h.219v11.654h-1.229l-6.347-9.656v9.656zM63.25 9.29h.219v6.66c0 1.743-.348 3.025-1.044 3.846-.696.81-1.605 1.215-2.727 1.215-.707 0-1.307-.061-1.801-.183a3.893 3.893 0 0 1-1.398-.716c-.898-.688-1.347-2.076-1.347-4.162V9.29h1.398v6.643c0 2.02.309 3.369.926 4.046.314.333.64.561.976.683.348.122.763.183 1.246.183 1.078 0 1.936-.388 2.576-1.165.651-.788.976-2.037.976-3.746V9.291zM69.212 20.944h-1.397V9.456h-2.912V9.29h7.239v.166h-2.929v11.488z"/>
    </symbol>
    <symbol id="icon-phone" viewBox="0 0 32 32">
      <path d="M29.43 20.474c-1.959 0-3.882-.299-5.705-.886-.893-.297-1.991-.025-2.536.521l-3.598 2.648c-4.172-2.171-6.743-4.676-8.939-8.713l2.636-3.416a2.475 2.475 0 0 0 .636-2.554 17.325 17.325 0 0 1-.912-5.571C11.012 1.123 9.86 0 8.445 0H2.569C1.153 0 .001 1.123.001 2.503c0 15.819 13.202 28.689 29.43 28.689 1.416 0 2.568-1.123 2.568-2.503v-5.712c0-1.38-1.152-2.503-2.568-2.503z"/>
    </symbol>
    <symbol id="icon-twitter" viewBox="0 0 32 32">
      <path d="M32 5.441c-1.19.583-2.458.97-3.78 1.158 1.36-.908 2.398-2.334 2.886-4.053a12.307 12.307 0 0 1-4.16 1.775C25.742 2.888 24.026 2 22.154 2c-3.632 0-6.556 3.295-6.556 7.335 0 .581.044 1.14.152 1.672-5.454-.297-10.28-3.219-13.522-7.671a8.059 8.059 0 0 0-.898 3.707c0 2.54 1.17 4.791 2.914 6.095-1.054-.022-2.088-.364-2.964-.903v.08c0 3.564 2.274 6.524 5.256 7.206a5.905 5.905 0 0 1-1.72.241c-.42 0-.844-.027-1.242-.125.85 2.904 3.262 5.039 6.13 5.109-2.232 1.952-5.066 3.128-8.134 3.128-.538 0-1.054-.027-1.57-.101 2.906 2.095 6.35 3.291 10.064 3.291 12.072 0 18.672-11.178 18.672-20.868 0-.324-.01-.637-.024-.948C30.014 8.215 31.108 6.925 32 5.441z"/>
    </symbol>
  </defs>
</svg>